<svg width="1157" height="75" viewBox="0 0 1157 75" fill="none" xmlns="http://www.w3.org/2000/svg">
<path d="M1.502 65.378C3.253 70.322 10.257 71.558 14.789 72.279C19.836 73 24.986 73.103 30.136 72.897C35.08 72.691 40.127 72.279 44.968 70.94C52.59 68.777 62.066 62.185 60.933 53.121C60.727 51.679 60.006 50.237 58.873 49.413C57.843 48.795 56.607 48.589 55.371 48.795C51.869 49.31 50.221 52.812 48.676 55.49C43.32 65.275 35.389 71.352 23.956 71.352C20.66 71.455 14.377 71.867 12.523 68.262C10.978 65.069 14.686 63.421 15.716 60.846C17.776 55.696 16.437 50.752 14.789 45.705C12.214 38.083 10.154 29.946 10.978 21.912C11.596 16.144 13.965 9.449 18.291 5.432C19.527 4.402 22.514 2.34199 21.587 1.106C21.072 0.487994 19.836 1.312 18.6 2.239C17.673 3.063 16.849 3.887 16.746 4.093C9.948 11.612 7.991 21.603 7.991 31.388C7.991 37.465 8.3 37.877 8.197 39.834C7.888 44.057 6.446 47.25 5.004 50.443C3.253 54.151 2.532 54.357 1.811 56.932C1.811 57.241 0.472 62.185 1.502 65.378ZM67.896 31.903C68.411 33.139 70.162 33.551 71.913 33.551C73.355 33.551 74.9 33.345 75.827 32.933C78.505 31.903 81.492 30.976 84.479 30.976C85.921 30.976 87.26 31.182 88.599 31.697C91.895 33.036 93.44 36.229 97.148 36.847C99.002 37.259 100.856 37.156 101.371 35.92C103.225 32.727 99.723 29.946 97.045 28.813C95.191 27.989 93.028 27.577 90.865 27.577C88.908 27.577 86.848 27.886 85.097 28.298C83.655 28.607 80.977 29.534 79.535 29.843C76.548 30.358 72.222 29.637 70.471 26.959C68.205 23.766 70.574 19.234 72.531 16.556C75.003 10.994 83.243 7.08 89.217 7.08C93.337 7.08 97.56 8.213 100.959 10.273C105.285 12.848 107.036 17.998 111.568 19.955C113.937 21.088 115.585 21.397 117.13 20.985C117.542 20.882 119.087 20.264 119.705 18.925C121.868 14.29 115.379 8.419 111.877 6.565C108.375 4.608 104.461 3.887 100.444 3.475C89.011 2.34199 76.651 7.08 70.574 17.174C68.102 21.191 66.145 27.268 67.896 31.903ZM69.956 58.58C74.797 67.438 84.582 71.043 94.264 71.043C103.431 71.043 112.701 68.468 118.16 60.537C120.323 57.344 122.28 48.383 116.306 48.383C114.658 48.486 113.216 49.516 112.186 50.649C111.053 51.885 110.332 53.327 109.405 54.769C104.873 62.288 97.56 68.159 88.496 68.159C79.02 68.159 70.162 61.258 69.235 51.576C68.823 48.074 69.853 44.469 71.295 41.173C71.604 40.452 71.913 39.834 71.913 39.113C72.016 38.598 71.707 37.877 71.295 37.568C71.192 37.465 71.089 37.362 70.883 37.362C69.647 37.053 68.72 38.598 68.411 39.834C66.866 46.117 66.969 53.018 69.956 58.58ZM159.792 70.94C162.882 72.382 166.693 73 170.504 73C173.388 73 176.169 72.691 178.744 72.073C178.744 72.073 184.203 70.837 186.263 68.056C186.572 67.747 187.293 66.82 186.984 66.408C186.572 65.79 185.542 66.099 185.13 66.408C181.937 68.365 179.156 69.189 175.345 69.189C172.255 69.189 168.032 68.571 164.221 65.687C158.865 61.567 157.938 55.902 157.114 50.443C156.496 46.426 156.29 42.203 156.805 38.083C157.114 36.126 157.629 34.066 159.071 32.521C161.131 30.461 163.294 30.976 165.972 30.564C171.843 29.946 176.581 27.371 181.525 24.384C182.864 23.56 184.306 23.251 185.851 23.251C187.911 23.251 189.971 23.972 191.825 25.105C197.284 28.607 197.49 35.302 197.593 35.92C197.696 39.731 196.357 43.851 194.606 47.147C193.061 50.031 190.795 52.503 188.941 55.181C187.705 56.829 186.778 58.477 187.293 60.64C187.705 62.7 189.456 64.039 191.619 64.245C195.533 64.554 199.756 60.64 202.022 57.962C205.73 53.533 206.451 48.898 206.657 47.147C207.79 39.422 204.494 33.139 202.331 30.152C200.58 26.753 193.988 22.324 190.898 20.264C190.177 19.749 188.735 19.131 189.662 18.101C190.074 17.483 190.589 16.659 190.795 15.526C191.619 12.024 188.941 9.14 188.632 8.831C185.233 5.22599 178.641 0.899995 170.916 0.899995C164.427 0.899995 158.35 3.99 154.127 8.831C153.509 9.449 152.994 10.273 152.685 11.097C151.964 13.054 151.964 15.114 152.891 16.968V17.071C153.406 18.101 153.818 18.41 154.23 19.337C154.642 20.161 154.951 21.5 155.054 23.354C155.878 31.594 154.951 39.937 154.951 48.28C154.848 49.825 154.539 51.473 153.818 52.812C153.2 54.048 152.582 55.593 152.376 57.55C151.758 63.112 154.642 68.468 159.792 70.94ZM158.453 14.393C158.453 13.569 158.556 12.745 158.556 11.818C159.174 5.02 165.354 2.136 171.431 2.136C173.903 2.136 176.993 2.651 179.465 4.81399C182.143 7.08 184.512 10.788 183.585 15.732C182.658 20.779 180.495 22.427 178.538 24.178C174.624 27.783 168.65 29.534 163.294 28.916C160.513 28.504 159.483 25.929 158.968 23.56C158.35 20.779 158.247 17.174 158.453 14.393ZM213.437 65.378C215.188 70.322 222.192 71.558 226.724 72.279C231.771 73 236.921 73.103 242.071 72.897C247.015 72.691 252.062 72.279 256.903 70.94C264.525 68.777 274.001 62.185 272.868 53.121C272.662 51.679 271.941 50.237 270.808 49.413C269.778 48.795 268.542 48.589 267.306 48.795C263.804 49.31 262.156 52.812 260.611 55.49C255.255 65.275 247.324 71.352 235.891 71.352C232.595 71.455 226.312 71.867 224.458 68.262C222.913 65.069 226.621 63.421 227.651 60.846C229.711 55.696 228.372 50.752 226.724 45.705C224.149 38.083 222.089 29.946 222.913 21.912C223.531 16.144 225.9 9.449 230.226 5.432C231.462 4.402 234.449 2.34199 233.522 1.106C233.007 0.487994 231.771 1.312 230.535 2.239C229.608 3.063 228.784 3.887 228.681 4.093C221.883 11.612 219.926 21.603 219.926 31.388C219.926 37.465 220.235 37.877 220.132 39.834C219.823 44.057 218.381 47.25 216.939 50.443C215.188 54.151 214.467 54.357 213.746 56.932C213.746 57.241 212.407 62.185 213.437 65.378ZM279.831 31.903C280.346 33.139 282.097 33.551 283.848 33.551C285.29 33.551 286.835 33.345 287.762 32.933C290.44 31.903 293.427 30.976 296.414 30.976C297.856 30.976 299.195 31.182 300.534 31.697C303.83 33.036 305.375 36.229 309.083 36.847C310.937 37.259 312.791 37.156 313.306 35.92C315.16 32.727 311.658 29.946 308.98 28.813C307.126 27.989 304.963 27.577 302.8 27.577C300.843 27.577 298.783 27.886 297.032 28.298C295.59 28.607 292.912 29.534 291.47 29.843C288.483 30.358 284.157 29.637 282.406 26.959C280.14 23.766 282.509 19.234 284.466 16.556C286.938 10.994 295.178 7.08 301.152 7.08C305.272 7.08 309.495 8.213 312.894 10.273C317.22 12.848 318.971 17.998 323.503 19.955C325.872 21.088 327.52 21.397 329.065 20.985C329.477 20.882 331.022 20.264 331.64 18.925C333.803 14.29 327.314 8.419 323.812 6.565C320.31 4.608 316.396 3.887 312.379 3.475C300.946 2.34199 288.586 7.08 282.509 17.174C280.037 21.191 278.08 27.268 279.831 31.903ZM281.891 58.58C286.732 67.438 296.517 71.043 306.199 71.043C315.366 71.043 324.636 68.468 330.095 60.537C332.258 57.344 334.215 48.383 328.241 48.383C326.593 48.486 325.151 49.516 324.121 50.649C322.988 51.885 322.267 53.327 321.34 54.769C316.808 62.288 309.495 68.159 300.431 68.159C290.955 68.159 282.097 61.258 281.17 51.576C280.758 48.074 281.788 44.469 283.23 41.173C283.539 40.452 283.848 39.834 283.848 39.113C283.951 38.598 283.642 37.877 283.23 37.568C283.127 37.465 283.024 37.362 282.818 37.362C281.582 37.053 280.655 38.598 280.346 39.834C278.801 46.117 278.904 53.018 281.891 58.58ZM362.251 70.219C365.238 71.146 368.328 71.661 371.418 71.661C381.718 71.661 391.606 66.202 393.769 53.945C394.799 48.177 393.46 42.409 392.739 36.744C391.915 30.667 394.593 25.002 395.108 19.131C395.52 13.26 392.945 8.316 388.928 4.505C388.104 3.78399 386.971 2.96 385.941 2.754C381.512 2.136 382.439 8.10999 383.572 10.582C384.808 13.363 387.28 16.144 387.795 19.44C388.516 24.178 387.383 29.019 388.722 33.654C390.576 39.937 393.048 45.602 392.533 52.606C391.709 62.391 384.087 65.481 375.95 65.481C361.839 65.481 348.346 56.829 342.372 43.954C338.664 36.023 338.87 26.135 341.96 17.998C343.402 14.496 345.256 12.23 347.419 9.449C348.655 7.904 352.157 4.81399 350.2 2.85699C349.479 2.136 347.728 2.96 347.213 3.166C341.136 6.05 339.282 17.174 338.767 23.148C336.604 42.409 343.299 64.451 362.251 70.219ZM427.38 45.808C427.895 48.795 429.234 51.473 430.882 53.842C432.53 56.108 435.105 57.344 436.753 59.404C437.68 60.743 438.195 61.67 439.122 63.009C442.418 68.365 452.306 70.734 458.28 70.734C464.357 70.734 471.258 69.189 476.614 66.305C484.133 62.288 491.24 51.988 490.313 43.542C489.798 39.937 488.047 35.302 483.103 36.641C478.468 37.877 476.82 44.16 476.305 48.486C475.79 52.194 475.687 54.666 473.421 58.683C470.022 64.348 464.357 67.747 458.898 67.953C454.881 68.159 449.422 66.717 447.671 62.906C447.362 62.288 447.156 61.773 446.95 61.155C446.641 60.125 446.641 58.889 446.229 57.859C445.096 55.593 442.212 54.048 440.77 52.194C438.71 49.619 437.165 46.735 436.341 43.748C434.178 36.95 435.414 31.182 436.135 28.504C439.225 15.629 450.452 5.329 463.945 5.329C475.378 5.329 483.515 13.26 486.605 23.869C486.708 24.281 486.811 24.796 487.017 25.208C487.326 26.032 488.356 26.135 488.768 25.311C489.386 24.075 488.665 22.53 488.15 21.5C483 10.479 474.451 3.578 462.091 3.578C449.113 3.578 437.989 10.891 431.912 22.324C428.101 29.431 426.35 37.877 427.38 45.808ZM496.988 47.25C499.357 61.464 511.82 70.837 526.137 70.837C530.772 70.837 535.407 69.807 539.527 67.644C554.874 59.507 559.2 39.01 552.814 23.663C549.106 14.805 540.66 5.123 530.772 3.37199C520.575 1.621 509.863 7.698 504.095 16.041C501.211 20.264 500.181 24.075 498.533 31.697C496.988 38.392 496.061 42.203 496.988 47.25ZM505.228 26.032C506.464 13.981 517.176 6.05 528.197 6.05C532.626 6.05 537.055 7.286 540.969 10.067C562.908 25.517 556.007 68.777 525.313 66.099C520.884 65.687 516.661 63.318 516.043 58.58C515.734 56.005 516.661 53.739 516.043 51.267C515.425 48.692 513.777 46.838 512.232 44.778C510.069 41.997 508.009 39.01 506.67 35.714C505.434 32.727 504.919 29.534 505.228 26.032ZM525.416 39.422C528.3 42.1 527.064 43.851 528.3 45.19C529.021 46.014 530.051 46.323 530.978 46.323C532.008 46.323 532.935 45.911 533.45 45.19C537.673 39.01 532.008 33.86 532.008 33.86C531.081 32.727 529.639 32.212 528.3 32.212C526.755 32.212 525.313 32.933 524.695 34.272C523.253 37.362 525.416 39.422 525.416 39.422ZM562.578 31.903C563.093 33.139 564.844 33.551 566.595 33.551C568.037 33.551 569.582 33.345 570.509 32.933C573.187 31.903 576.174 30.976 579.161 30.976C580.603 30.976 581.942 31.182 583.281 31.697C586.577 33.036 588.122 36.229 591.83 36.847C593.684 37.259 595.538 37.156 596.053 35.92C597.907 32.727 594.405 29.946 591.727 28.813C589.873 27.989 587.71 27.577 585.547 27.577C583.59 27.577 581.53 27.886 579.779 28.298C578.337 28.607 575.659 29.534 574.217 29.843C571.23 30.358 566.904 29.637 565.153 26.959C562.887 23.766 565.256 19.234 567.213 16.556C569.685 10.994 577.925 7.08 583.899 7.08C588.019 7.08 592.242 8.213 595.641 10.273C599.967 12.848 601.718 17.998 606.25 19.955C608.619 21.088 610.267 21.397 611.812 20.985C612.224 20.882 613.769 20.264 614.387 18.925C616.55 14.29 610.061 8.419 606.559 6.565C603.057 4.608 599.143 3.887 595.126 3.475C583.693 2.34199 571.333 7.08 565.256 17.174C562.784 21.191 560.827 27.268 562.578 31.903ZM564.638 58.58C569.479 67.438 579.264 71.043 588.946 71.043C598.113 71.043 607.383 68.468 612.842 60.537C615.005 57.344 616.962 48.383 610.988 48.383C609.34 48.486 607.898 49.516 606.868 50.649C605.735 51.885 605.014 53.327 604.087 54.769C599.555 62.288 592.242 68.159 583.178 68.159C573.702 68.159 564.844 61.258 563.917 51.576C563.505 48.074 564.535 44.469 565.977 41.173C566.286 40.452 566.595 39.834 566.595 39.113C566.698 38.598 566.389 37.877 565.977 37.568C565.874 37.465 565.771 37.362 565.565 37.362C564.329 37.053 563.402 38.598 563.093 39.834C561.548 46.117 561.651 53.018 564.638 58.58ZM644.998 70.219C647.985 71.146 651.075 71.661 654.165 71.661C664.465 71.661 674.353 66.202 676.516 53.945C677.546 48.177 676.207 42.409 675.486 36.744C674.662 30.667 677.34 25.002 677.855 19.131C678.267 13.26 675.692 8.316 671.675 4.505C670.851 3.78399 669.718 2.96 668.688 2.754C664.259 2.136 665.186 8.10999 666.319 10.582C667.555 13.363 670.027 16.144 670.542 19.44C671.263 24.178 670.13 29.019 671.469 33.654C673.323 39.937 675.795 45.602 675.28 52.606C674.456 62.391 666.834 65.481 658.697 65.481C644.586 65.481 631.093 56.829 625.119 43.954C621.411 36.023 621.617 26.135 624.707 17.998C626.149 14.496 628.003 12.23 630.166 9.449C631.402 7.904 634.904 4.81399 632.947 2.85699C632.226 2.136 630.475 2.96 629.96 3.166C623.883 6.05 622.029 17.174 621.514 23.148C619.351 42.409 626.046 64.451 644.998 70.219ZM687.777 19.028C688.91 26.238 690.146 34.478 688.189 41.585C686.85 46.323 684.584 50.649 684.172 55.593C683.76 60.537 684.893 65.481 688.292 69.498C689.425 70.94 690.867 72.073 692.721 72.691C697.768 74.236 697.459 69.601 696.223 66.717C694.987 64.039 693.03 61.773 691.897 58.992C688.601 50.752 692.927 42.203 692.309 33.86C691.794 26.444 689.631 19.337 687.571 12.23C687.468 11.612 687.262 10.994 687.056 10.376C686.541 8.419 686.335 6.359 687.88 4.81399C688.91 3.681 690.455 3.269 692.103 3.269C694.781 3.269 697.871 4.29899 699.828 5.02C706.832 7.59499 714.557 11.2 718.986 17.586C721.252 20.882 722.385 25.105 722.076 29.122C721.87 32.109 720.016 39.525 715.793 38.804C710.746 37.877 709.201 30.255 703.639 29.637C698.798 29.122 694.575 32.109 694.369 37.156C694.266 42.1 701.167 44.263 704.051 47.044C706.832 49.619 708.995 52.606 711.158 55.593C715.175 61.361 719.295 67.747 726.299 70.837C729.286 72.176 732.582 73.103 735.878 73C739.174 72.897 742.47 71.867 744.736 69.704C747.002 67.644 748.135 63.73 745.045 61.876C744.118 61.361 743.088 61.155 742.058 61.155C738.865 61.155 735.26 62.906 732.376 63.009C725.475 63.318 719.501 60.125 715.072 55.49C712.703 53.018 710.849 50.237 708.686 47.765C706.317 45.19 703.845 43.233 701.064 41.276C700.034 40.555 696.841 38.186 699.313 37.053C700.755 36.435 702.094 38.495 703.021 39.319C706.729 42.409 712.085 43.954 716.823 43.954C721.767 44.16 726.402 42.306 729.08 38.289C733.612 31.491 730.007 20.882 724.96 15.114C719.81 9.14 711.776 4.711 703.742 2.651C700.961 1.92999 697.459 0.899995 694.163 0.899995C692.206 0.899995 690.249 1.312 688.704 2.34199C682.936 6.05 686.953 14.084 687.777 19.028ZM721.561 56.417C722.488 57.55 723.827 58.58 725.063 59.095C727.329 60.228 729.698 60.743 731.861 60.331C733.509 60.022 735.672 58.271 734.333 55.799C733.818 54.666 732.685 54.254 731.758 54.357C730.11 54.666 728.565 54.975 726.814 54.769C725.269 54.563 723.724 53.636 722.282 53.739C722.179 53.739 722.179 53.842 722.179 53.842C721.046 53.945 720.531 55.181 721.561 56.417ZM778.923 50.649C780.674 64.348 798.802 73 811.574 73C831.144 73 850.611 56.005 845.358 35.199C843.298 27.062 835.573 22.015 827.539 20.779C823.522 20.161 819.505 20.264 815.488 20.47C813.737 20.573 811.883 20.882 810.132 20.882C808.484 20.882 806.836 20.573 805.291 19.749C801.686 17.586 800.965 12.127 803.334 8.625C805.6 5.22599 809.411 3.887 813.325 3.887C817.754 3.887 822.492 5.535 825.479 9.03699C825.582 9.03699 825.685 9.14 825.788 9.243C827.127 10.891 829.187 14.084 831.659 13.569C835.058 12.848 833.616 9.449 831.762 8.10999C824.552 2.754 815.385 0.281997 806.527 1.00299C798.905 1.621 789.12 4.711 787.266 13.26C785.309 21.912 792.416 27.577 799.935 27.577C801.892 27.577 803.849 27.268 805.703 26.444C808.278 25.311 810.647 23.56 813.325 22.53C816.003 21.5 818.99 21.294 821.977 21.397C827.024 21.706 832.483 22.53 836.603 25.517C848.551 34.169 846.079 51.164 835.882 60.228C830.938 64.657 824.552 66.82 818.166 66.82C811.677 66.82 805.291 64.657 800.244 60.537C795.815 56.829 793.858 51.782 790.974 47.044C789.635 44.881 787.575 43.027 785.103 42.821C780.88 42.409 778.408 46.941 778.923 50.649ZM853.791 17.277C855.13 18.616 856.572 19.131 857.911 19.131C859.765 19.131 861.413 18.101 861.825 17.174C862.443 15.835 862.237 14.29 861.413 12.951C860.898 12.024 859.765 10.273 859.868 8.522C859.971 6.771 861.413 3.37199 865.43 2.754C868.623 2.239 872.846 2.651 875.833 3.578C879.129 4.608 883.867 6.462 888.605 8.419C887.163 9.55199 885.824 10.891 884.794 12.436C881.601 17.174 882.116 21.5 882.425 23.457C883.661 30.976 891.18 36.744 896.227 44.366C900.038 50.031 900.45 52.812 899.008 58.065C898.493 59.816 897.566 61.979 893.961 62.494C891.695 62.803 890.047 61.567 889.429 60.846C888.296 59.301 888.296 59.095 886.751 55.181C886.339 54.254 884.897 52.194 882.425 52.194C879.953 52.194 877.79 53.945 877.378 57.241C877.275 58.168 876.554 62.185 879.747 67.026C883.558 73.103 890.047 73 890.871 73C901.686 73 906.939 63.524 905.909 54.357C905.291 48.692 903.437 44.366 898.39 38.289C895.197 34.478 890.974 31.594 886.957 25.826C883.249 20.573 884.485 13.569 889.12 10.17C889.635 9.861 890.047 9.55199 890.562 9.243C898.081 12.333 905.085 15.423 905.085 15.423C909.514 16.968 913.634 17.998 917.548 17.998C920.638 17.998 923.625 17.277 926.406 15.835C932.483 11.509 927.436 5.638 926.406 5.02C926.2 4.917 925.994 3.887 921.359 2.34199C919.299 1.621 916.415 1.312 913.016 1.312C905.909 1.312 896.948 2.96 890.562 7.08C886.854 5.74099 882.94 4.29899 878.82 2.85699C875.73 1.92999 872.434 0.384996 865.636 0.384996C858.426 0.384996 851.834 2.96 851.319 10.994C851.216 12.539 851.937 15.32 853.791 17.277ZM892.725 7.904C898.802 4.608 904.879 3.578 909.823 3.578C915.385 3.578 919.711 4.81399 921.153 5.638C921.153 5.638 925.685 8.522 914.973 10.891C913.222 11.303 911.368 11.509 909.514 11.509C904.261 11.509 898.699 9.964 892.725 7.904ZM888.09 51.164C888.193 51.164 888.708 51.679 888.811 51.679C890.253 53.121 888.399 56.417 891.386 58.271C892.004 58.683 892.622 58.889 893.24 58.889C895.3 58.889 896.948 56.932 897.257 54.769C897.669 52.503 896.845 51.164 895.403 49.413C894.064 47.662 891.077 47.044 888.914 47.456C888.708 47.456 888.399 47.662 888.193 47.765C887.781 48.074 887.369 48.486 887.266 49.001C887.06 49.722 887.575 50.546 888.09 51.164ZM958.424 70.219C961.411 71.146 964.501 71.661 967.591 71.661C977.891 71.661 987.779 66.202 989.942 53.945C990.972 48.177 989.632 42.409 988.912 36.744C988.088 30.667 990.766 25.002 991.281 19.131C991.693 13.26 989.118 8.316 985.101 4.505C984.277 3.78399 983.144 2.96 982.114 2.754C977.685 2.136 978.612 8.10999 979.745 10.582C980.981 13.363 983.452 16.144 983.968 19.44C984.689 24.178 983.556 29.019 984.895 33.654C986.749 39.937 989.221 45.602 988.706 52.606C987.882 62.391 980.26 65.481 972.123 65.481C958.012 65.481 944.519 56.829 938.545 43.954C934.836 36.023 935.043 26.135 938.133 17.998C939.575 14.496 941.429 12.23 943.592 9.449C944.828 7.904 948.33 4.81399 946.373 2.85699C945.652 2.136 943.901 2.96 943.386 3.166C937.309 6.05 935.455 17.174 934.94 23.148C932.777 42.409 939.472 64.451 958.424 70.219ZM997.803 63.524C999.657 70.837 1008.31 73 1015.11 73C1023.76 73.103 1032.72 69.807 1039.42 64.554C1047.55 57.756 1051.57 49.31 1052.29 38.598C1052.7 31.8 1050.13 25.723 1046.63 19.955C1039.42 8.007 1028.6 0.899995 1014.59 0.899995C1009.44 0.899995 1000.69 2.548 998.318 8.10999C997.391 10.376 997.494 12.539 998.627 13.981C999.554 15.011 999.554 16.659 999.554 18.101L999.863 37.671C999.966 43.439 1001 50.134 998.627 55.593C997.803 57.55 997.082 60.434 997.803 63.524ZM1009.85 4.917C1011.3 4.505 1012.94 4.29899 1014.59 4.29899C1017.79 4.29899 1021.08 5.02 1023.45 6.256C1029.01 9.14 1029.42 15.938 1034.47 19.234C1035.71 20.058 1037.25 20.676 1038.9 20.573C1040.45 20.573 1042.51 20.058 1044.46 21.191C1046.73 22.427 1048.69 25.311 1049.82 30.049C1052.19 39.834 1045.39 47.765 1044.67 48.692C1043.74 49.825 1035.81 58.065 1024.48 57.859C1016.76 57.653 1008.31 53.945 1005.12 47.662C1001.31 40.349 1000.89 30.873 1000.89 22.736C1000.79 12.333 1003.26 7.08 1009.85 4.917ZM1039.21 25.723C1039.52 27.474 1040.65 28.504 1041.89 29.74C1043.02 30.77 1044.15 32.006 1044.67 33.551C1044.87 34.169 1045.08 34.993 1045.49 35.508C1045.8 36.126 1046.63 36.332 1047.24 35.92C1047.86 35.508 1047.76 34.684 1047.76 33.654C1047.66 32.109 1047.35 30.461 1046.63 29.019C1046.01 27.474 1044.98 25.517 1043.64 24.487C1043.02 24.075 1041.58 23.663 1040.55 23.766C1039.72 23.972 1039.11 24.796 1039.21 25.723ZM1069.26 62.906C1070.71 64.451 1073.59 65.79 1075.86 65.275C1077.3 64.966 1078.53 63.112 1078.74 60.846C1079.05 56.623 1076.06 54.872 1074 53.842C1071.02 52.503 1069.78 48.898 1069.88 44.16C1069.99 38.083 1072.05 33.242 1073.38 27.68C1074.62 22.633 1074.93 17.071 1072.15 12.951C1071.53 12.127 1070.09 10.788 1069.06 10.788C1068.75 10.788 1068.44 10.891 1068.23 11.2C1067.1 12.436 1067.93 15.114 1068.44 16.453C1068.96 17.895 1069.78 19.234 1070.19 20.676C1070.91 23.045 1071.12 25.826 1070.91 28.401C1070.81 29.74 1070.6 31.079 1070.29 32.315C1068.23 39.113 1066.17 42.924 1065.66 50.546C1065.35 55.387 1066.59 60.228 1069.26 62.906ZM1066.38 6.15299C1066.9 6.565 1067.51 6.66799 1068.03 6.771C1069.37 7.08 1070.71 7.492 1071.94 8.10999L1073.18 8.728C1073.9 8.934 1074.52 9.14 1075.14 8.728C1075.86 8.316 1076.37 7.698 1076.37 6.66799C1076.37 3.78399 1072.87 1.00299 1070.19 0.899995C1068.44 0.899995 1065.76 2.136 1065.76 4.196C1065.66 5.02 1065.97 5.74099 1066.38 6.15299ZM1063.6 64.245C1063.6 67.129 1065.76 71.249 1068.34 72.588C1068.75 72.794 1069.37 73 1069.88 73C1070.91 73 1071.94 72.485 1072.25 70.837C1072.46 69.704 1071.94 68.777 1071.22 68.365C1070.09 67.747 1068.85 67.129 1067.82 65.996C1067 65.069 1066.38 63.524 1065.35 62.803C1064.53 62.288 1063.6 62.803 1063.6 64.245ZM1090.45 47.25C1092.81 61.464 1105.28 70.837 1119.59 70.837C1124.23 70.837 1128.86 69.807 1132.98 67.644C1148.33 59.507 1152.66 39.01 1146.27 23.663C1142.56 14.805 1134.12 5.123 1124.23 3.37199C1114.03 1.621 1103.32 7.698 1097.55 16.041C1094.67 20.264 1093.64 24.075 1091.99 31.697C1090.45 38.392 1089.52 42.203 1090.45 47.25ZM1098.69 26.032C1099.92 13.981 1110.63 6.05 1121.65 6.05C1126.08 6.05 1130.51 7.286 1134.43 10.067C1156.37 25.517 1149.46 68.777 1118.77 66.099C1114.34 65.687 1110.12 63.318 1109.5 58.58C1109.19 56.005 1110.12 53.739 1109.5 51.267C1108.88 48.692 1107.23 46.838 1105.69 44.778C1103.53 41.997 1101.47 39.01 1100.13 35.714C1098.89 32.727 1098.38 29.534 1098.69 26.032ZM1118.87 39.422C1121.76 42.1 1120.52 43.851 1121.76 45.19C1122.48 46.014 1123.51 46.323 1124.44 46.323C1125.47 46.323 1126.39 45.911 1126.91 45.19C1131.13 39.01 1125.47 33.86 1125.47 33.86C1124.54 32.727 1123.1 32.212 1121.76 32.212C1120.21 32.212 1118.77 32.933 1118.15 34.272C1116.71 37.362 1118.87 39.422 1118.87 39.422Z" fill="#59252F"/>
</svg>
