<svg width="212" height="34" viewBox="0 0 212 34" fill="none" xmlns="http://www.w3.org/2000/svg">
<path d="M0.564 29.3123C1.346 31.5203 4.474 32.0723 6.498 32.3943C8.752 32.7163 11.052 32.7623 13.352 32.6703C15.56 32.5783 17.814 32.3943 19.976 31.7963C23.38 30.8303 27.612 27.8863 27.106 23.8383C27.014 23.1943 26.692 22.5503 26.186 22.1823C25.726 21.9063 25.174 21.8143 24.622 21.9063C23.058 22.1363 22.322 23.7003 21.632 24.8963C19.24 29.2663 15.698 31.9803 10.592 31.9803C9.12 32.0263 6.314 32.2103 5.486 30.6003C4.796 29.1743 6.452 28.4383 6.912 27.2883C7.832 24.9883 7.234 22.7803 6.498 20.5263C5.348 17.1223 4.428 13.4883 4.796 9.90031C5.072 7.32431 6.13 4.33431 8.062 2.54031C8.614 2.08031 9.948 1.16031 9.534 0.608308C9.304 0.332306 8.752 0.700307 8.2 1.11431C7.786 1.48231 7.418 1.85031 7.372 1.94231C4.336 5.30031 3.462 9.76231 3.462 14.1323C3.462 16.8463 3.6 17.0303 3.554 17.9043C3.416 19.7903 2.772 21.2163 2.128 22.6423C1.346 24.2983 1.024 24.3903 0.702 25.5403C0.702 25.6783 0.104 27.8863 0.564 29.3123ZM30.2157 14.3623C30.4457 14.9143 31.2277 15.0983 32.0097 15.0983C32.6537 15.0983 33.3437 15.0063 33.7577 14.8223C34.9537 14.3623 36.2877 13.9483 37.6217 13.9483C38.2657 13.9483 38.8637 14.0403 39.4617 14.2703C40.9337 14.8683 41.6237 16.2943 43.2797 16.5703C44.1077 16.7543 44.9357 16.7083 45.1657 16.1563C45.9937 14.7303 44.4297 13.4883 43.2337 12.9823C42.4057 12.6143 41.4397 12.4303 40.4737 12.4303C39.5997 12.4303 38.6797 12.5683 37.8977 12.7523C37.2537 12.8903 36.0577 13.3043 35.4137 13.4423C34.0797 13.6723 32.1477 13.3503 31.3657 12.1543C30.3537 10.7283 31.4117 8.70431 32.2857 7.50831C33.3897 5.02431 37.0697 3.27631 39.7377 3.27631C41.5777 3.27631 43.4637 3.78231 44.9817 4.70231C46.9137 5.85231 47.6957 8.15231 49.7197 9.02631C50.7777 9.53231 51.5137 9.67031 52.2037 9.48631C52.3877 9.44031 53.0777 9.16431 53.3537 8.56631C54.3197 6.49631 51.4217 3.87431 49.8577 3.04631C48.2937 2.17231 46.5457 1.85031 44.7517 1.66631C39.6457 1.16031 34.1257 3.27631 31.4117 7.78431C30.3077 9.57831 29.4337 12.2923 30.2157 14.3623ZM31.1357 26.2763C33.2977 30.2323 37.6677 31.8423 41.9917 31.8423C46.0857 31.8423 50.2257 30.6923 52.6637 27.1503C53.6297 25.7243 54.5037 21.7223 51.8357 21.7223C51.0997 21.7683 50.4557 22.2283 49.9957 22.7343C49.4897 23.2863 49.1677 23.9303 48.7537 24.5743C46.7297 27.9323 43.4637 30.5543 39.4157 30.5543C35.1837 30.5543 31.2277 27.4723 30.8137 23.1483C30.6297 21.5843 31.0897 19.9743 31.7337 18.5023C31.8717 18.1803 32.0097 17.9043 32.0097 17.5823C32.0557 17.3523 31.9177 17.0303 31.7337 16.8923C31.6877 16.8463 31.6417 16.8003 31.5497 16.8003C30.9977 16.6623 30.5837 17.3523 30.4457 17.9043C29.7557 20.7103 29.8017 23.7923 31.1357 26.2763ZM67.9907 20.5723C68.2207 21.9063 68.8187 23.1023 69.5547 24.1603C70.2907 25.1723 71.4407 25.7243 72.1767 26.6443C72.5907 27.2423 72.8207 27.6563 73.2347 28.2543C74.7067 30.6463 79.1227 31.7043 81.7907 31.7043C84.5047 31.7043 87.5867 31.0143 89.9787 29.7263C93.3367 27.9323 96.5107 23.3323 96.0967 19.5603C95.8667 17.9503 95.0847 15.8803 92.8767 16.4783C90.8067 17.0303 90.0707 19.8363 89.8407 21.7683C89.6107 23.4243 89.5647 24.5283 88.5527 26.3223C87.0347 28.8523 84.5047 30.3703 82.0667 30.4623C80.2727 30.5543 77.8347 29.9103 77.0527 28.2083C76.9147 27.9323 76.8227 27.7023 76.7307 27.4263C76.5927 26.9663 76.5927 26.4143 76.4087 25.9543C75.9027 24.9423 74.6147 24.2523 73.9707 23.4243C73.0507 22.2743 72.3607 20.9863 71.9927 19.6523C71.0267 16.6163 71.5787 14.0403 71.9007 12.8443C73.2807 7.09431 78.2947 2.49431 84.3207 2.49431C89.4267 2.49431 93.0607 6.03631 94.4407 10.7743C94.4867 10.9583 94.5327 11.1883 94.6247 11.3723C94.7627 11.7403 95.2227 11.7863 95.4067 11.4183C95.6827 10.8663 95.3607 10.1763 95.1307 9.71631C92.8307 4.79431 89.0127 1.71231 83.4927 1.71231C77.6967 1.71231 72.7287 4.97831 70.0147 10.0843C68.3127 13.2583 67.5307 17.0303 67.9907 20.5723ZM99.0777 21.2163C100.136 27.5643 105.702 31.7503 112.096 31.7503C114.166 31.7503 116.236 31.2903 118.076 30.3243C124.93 26.6903 126.862 17.5363 124.01 10.6823C122.354 6.72631 118.582 2.40231 114.166 1.62031C109.612 0.838308 104.828 3.55231 102.252 7.27831C100.964 9.16431 100.504 10.8663 99.7677 14.2703C99.0777 17.2603 98.6637 18.9623 99.0777 21.2163ZM102.758 11.7403C103.31 6.35831 108.094 2.81631 113.016 2.81631C114.994 2.81631 116.972 3.36831 118.72 4.61031C128.518 11.5103 125.436 30.8303 111.728 29.6343C109.75 29.4503 107.864 28.3923 107.588 26.2763C107.45 25.1263 107.864 24.1143 107.588 23.0103C107.312 21.8603 106.576 21.0323 105.886 20.1123C104.92 18.8703 104 17.5363 103.402 16.0643C102.85 14.7303 102.62 13.3043 102.758 11.7403ZM111.774 17.7203C113.062 18.9163 112.51 19.6983 113.062 20.2963C113.384 20.6643 113.844 20.8023 114.258 20.8023C114.718 20.8023 115.132 20.6183 115.362 20.2963C117.248 17.5363 114.718 15.2363 114.718 15.2363C114.304 14.7303 113.66 14.5003 113.062 14.5003C112.372 14.5003 111.728 14.8223 111.452 15.4203C110.808 16.8003 111.774 17.7203 111.774 17.7203ZM128.37 14.3623C128.6 14.9143 129.382 15.0983 130.164 15.0983C130.808 15.0983 131.498 15.0063 131.912 14.8223C133.108 14.3623 134.442 13.9483 135.776 13.9483C136.42 13.9483 137.018 14.0403 137.616 14.2703C139.088 14.8683 139.778 16.2943 141.434 16.5703C142.262 16.7543 143.09 16.7083 143.32 16.1563C144.148 14.7303 142.584 13.4883 141.388 12.9823C140.56 12.6143 139.594 12.4303 138.628 12.4303C137.754 12.4303 136.834 12.5683 136.052 12.7523C135.408 12.8903 134.212 13.3043 133.568 13.4423C132.234 13.6723 130.302 13.3503 129.52 12.1543C128.508 10.7283 129.566 8.70431 130.44 7.50831C131.544 5.02431 135.224 3.27631 137.892 3.27631C139.732 3.27631 141.618 3.78231 143.136 4.70231C145.068 5.85231 145.85 8.15231 147.874 9.02631C148.932 9.53231 149.668 9.67031 150.358 9.48631C150.542 9.44031 151.232 9.16431 151.508 8.56631C152.474 6.49631 149.576 3.87431 148.012 3.04631C146.448 2.17231 144.7 1.85031 142.906 1.66631C137.8 1.16031 132.28 3.27631 129.566 7.78431C128.462 9.57831 127.588 12.2923 128.37 14.3623ZM129.29 26.2763C131.452 30.2323 135.822 31.8423 140.146 31.8423C144.24 31.8423 148.38 30.6923 150.818 27.1503C151.784 25.7243 152.658 21.7223 149.99 21.7223C149.254 21.7683 148.61 22.2283 148.15 22.7343C147.644 23.2863 147.322 23.9303 146.908 24.5743C144.884 27.9323 141.618 30.5543 137.57 30.5543C133.338 30.5543 129.382 27.4723 128.968 23.1483C128.784 21.5843 129.244 19.9743 129.888 18.5023C130.026 18.1803 130.164 17.9043 130.164 17.5823C130.21 17.3523 130.072 17.0303 129.888 16.8923C129.842 16.8463 129.796 16.8003 129.704 16.8003C129.152 16.6623 128.738 17.3523 128.6 17.9043C127.91 20.7103 127.956 23.7923 129.29 26.2763ZM165.179 31.4743C166.513 31.8883 167.893 32.1183 169.273 32.1183C173.873 32.1183 178.289 29.6803 179.255 24.2063C179.715 21.6303 179.117 19.0543 178.795 16.5243C178.427 13.8103 179.623 11.2803 179.853 8.65831C180.037 6.03631 178.887 3.82831 177.093 2.12631C176.725 1.80431 176.219 1.43631 175.759 1.34431C173.781 1.06831 174.195 3.73631 174.701 4.84031C175.253 6.08231 176.357 7.32431 176.587 8.79631C176.909 10.9123 176.403 13.0743 177.001 15.1443C177.829 17.9503 178.933 20.4803 178.703 23.6083C178.335 27.9783 174.931 29.3583 171.297 29.3583C164.995 29.3583 158.969 25.4943 156.301 19.7443C154.645 16.2023 154.737 11.7863 156.117 8.15231C156.761 6.58831 157.589 5.57631 158.555 4.33431C159.107 3.64431 160.671 2.26431 159.797 1.39031C159.475 1.06831 158.693 1.43631 158.463 1.52831C155.749 2.81631 154.921 7.78431 154.691 10.4523C153.725 19.0543 156.715 28.8983 165.179 31.4743ZM184.284 8.61231C184.79 11.8323 185.342 15.5123 184.468 18.6863C183.87 20.8023 182.858 22.7343 182.674 24.9423C182.49 27.1503 182.996 29.3583 184.514 31.1523C185.02 31.7963 185.664 32.3023 186.492 32.5783C188.746 33.2683 188.608 31.1983 188.056 29.9103C187.504 28.7143 186.63 27.7023 186.124 26.4603C184.652 22.7803 186.584 18.9623 186.308 15.2363C186.078 11.9243 185.112 8.75031 184.192 5.57631C184.146 5.30031 184.054 5.02431 183.962 4.74831C183.732 3.87431 183.64 2.95431 184.33 2.26431C184.79 1.75831 185.48 1.57431 186.216 1.57431C187.412 1.57431 188.792 2.03431 189.666 2.35631C192.794 3.50631 196.244 5.11631 198.222 7.96831C199.234 9.44031 199.74 11.3263 199.602 13.1203C199.51 14.4543 198.682 17.7663 196.796 17.4443C194.542 17.0303 193.852 13.6263 191.368 13.3503C189.206 13.1203 187.32 14.4543 187.228 16.7083C187.182 18.9163 190.264 19.8823 191.552 21.1243C192.794 22.2743 193.76 23.6083 194.726 24.9423C196.52 27.5183 198.36 30.3703 201.488 31.7503C202.822 32.3483 204.294 32.7623 205.766 32.7163C207.238 32.6703 208.71 32.2103 209.722 31.2443C210.734 30.3243 211.24 28.5763 209.86 27.7483C209.446 27.5183 208.986 27.4263 208.526 27.4263C207.1 27.4263 205.49 28.2083 204.202 28.2543C201.12 28.3923 198.452 26.9663 196.474 24.8963C195.416 23.7923 194.588 22.5503 193.622 21.4463C192.564 20.2963 191.46 19.4223 190.218 18.5483C189.758 18.2263 188.332 17.1683 189.436 16.6623C190.08 16.3863 190.678 17.3063 191.092 17.6743C192.748 19.0543 195.14 19.7443 197.256 19.7443C199.464 19.8363 201.534 19.0083 202.73 17.2143C204.754 14.1783 203.144 9.44031 200.89 6.86431C198.59 4.19631 195.002 2.21831 191.414 1.29831C190.172 0.976306 188.608 0.516306 187.136 0.516306C186.262 0.516306 185.388 0.700307 184.698 1.16031C182.122 2.81631 183.916 6.40431 184.284 8.61231ZM199.372 25.3103C199.786 25.8163 200.384 26.2763 200.936 26.5063C201.948 27.0123 203.006 27.2423 203.972 27.0583C204.708 26.9203 205.674 26.1383 205.076 25.0343C204.846 24.5283 204.34 24.3443 203.926 24.3903C203.19 24.5283 202.5 24.6663 201.718 24.5743C201.028 24.4823 200.338 24.0683 199.694 24.1143C199.648 24.1143 199.648 24.1603 199.648 24.1603C199.142 24.2063 198.912 24.7583 199.372 25.3103Z" fill="#59252F"/>
</svg>
