<svg width="212" height="34" viewBox="0 0 212 34" fill="none" xmlns="http://www.w3.org/2000/svg">
<path d="M0.564 29.596C1.346 31.804 4.474 32.356 6.498 32.678C8.752 33 11.052 33.046 13.352 32.954C15.56 32.862 17.814 32.678 19.976 32.08C23.38 31.114 27.612 28.17 27.106 24.122C27.014 23.478 26.692 22.834 26.186 22.466C25.726 22.19 25.174 22.098 24.622 22.19C23.058 22.42 22.322 23.984 21.632 25.18C19.24 29.55 15.698 32.264 10.592 32.264C9.12 32.31 6.314 32.494 5.486 30.884C4.796 29.458 6.452 28.722 6.912 27.572C7.832 25.272 7.234 23.064 6.498 20.81C5.348 17.406 4.428 13.772 4.796 10.184C5.072 7.608 6.13 4.618 8.062 2.824C8.614 2.364 9.948 1.444 9.534 0.891999C9.304 0.615997 8.752 0.983998 8.2 1.398C7.786 1.766 7.418 2.134 7.372 2.226C4.336 5.584 3.462 10.046 3.462 14.416C3.462 17.13 3.6 17.314 3.554 18.188C3.416 20.074 2.772 21.5 2.128 22.926C1.346 24.582 1.024 24.674 0.702 25.824C0.702 25.962 0.104 28.17 0.564 29.596ZM30.2157 14.646C30.4457 15.198 31.2277 15.382 32.0097 15.382C32.6537 15.382 33.3437 15.29 33.7577 15.106C34.9537 14.646 36.2877 14.232 37.6217 14.232C38.2657 14.232 38.8637 14.324 39.4617 14.554C40.9337 15.152 41.6237 16.578 43.2797 16.854C44.1077 17.038 44.9357 16.992 45.1657 16.44C45.9937 15.014 44.4297 13.772 43.2337 13.266C42.4057 12.898 41.4397 12.714 40.4737 12.714C39.5997 12.714 38.6797 12.852 37.8977 13.036C37.2537 13.174 36.0577 13.588 35.4137 13.726C34.0797 13.956 32.1477 13.634 31.3657 12.438C30.3537 11.012 31.4117 8.988 32.2857 7.792C33.3897 5.308 37.0697 3.56 39.7377 3.56C41.5777 3.56 43.4637 4.066 44.9817 4.986C46.9137 6.136 47.6957 8.436 49.7197 9.31C50.7777 9.816 51.5137 9.954 52.2037 9.77C52.3877 9.724 53.0777 9.448 53.3537 8.85C54.3197 6.78 51.4217 4.158 49.8577 3.33C48.2937 2.456 46.5457 2.134 44.7517 1.95C39.6457 1.444 34.1257 3.56 31.4117 8.068C30.3077 9.862 29.4337 12.576 30.2157 14.646ZM31.1357 26.56C33.2977 30.516 37.6677 32.126 41.9917 32.126C46.0857 32.126 50.2257 30.976 52.6637 27.434C53.6297 26.008 54.5037 22.006 51.8357 22.006C51.0997 22.052 50.4557 22.512 49.9957 23.018C49.4897 23.57 49.1677 24.214 48.7537 24.858C46.7297 28.216 43.4637 30.838 39.4157 30.838C35.1837 30.838 31.2277 27.756 30.8137 23.432C30.6297 21.868 31.0897 20.258 31.7337 18.786C31.8717 18.464 32.0097 18.188 32.0097 17.866C32.0557 17.636 31.9177 17.314 31.7337 17.176C31.6877 17.13 31.6417 17.084 31.5497 17.084C30.9977 16.946 30.5837 17.636 30.4457 18.188C29.7557 20.994 29.8017 24.076 31.1357 26.56ZM67.9907 20.856C68.2207 22.19 68.8187 23.386 69.5547 24.444C70.2907 25.456 71.4407 26.008 72.1767 26.928C72.5907 27.526 72.8207 27.94 73.2347 28.538C74.7067 30.93 79.1227 31.988 81.7907 31.988C84.5047 31.988 87.5867 31.298 89.9787 30.01C93.3367 28.216 96.5107 23.616 96.0967 19.844C95.8667 18.234 95.0847 16.164 92.8767 16.762C90.8067 17.314 90.0707 20.12 89.8407 22.052C89.6107 23.708 89.5647 24.812 88.5527 26.606C87.0347 29.136 84.5047 30.654 82.0667 30.746C80.2727 30.838 77.8347 30.194 77.0527 28.492C76.9147 28.216 76.8227 27.986 76.7307 27.71C76.5927 27.25 76.5927 26.698 76.4087 26.238C75.9027 25.226 74.6147 24.536 73.9707 23.708C73.0507 22.558 72.3607 21.27 71.9927 19.936C71.0267 16.9 71.5787 14.324 71.9007 13.128C73.2807 7.378 78.2947 2.778 84.3207 2.778C89.4267 2.778 93.0607 6.32 94.4407 11.058C94.4867 11.242 94.5327 11.472 94.6247 11.656C94.7627 12.024 95.2227 12.07 95.4067 11.702C95.6827 11.15 95.3607 10.46 95.1307 10C92.8307 5.078 89.0127 1.996 83.4927 1.996C77.6967 1.996 72.7287 5.262 70.0147 10.368C68.3127 13.542 67.5307 17.314 67.9907 20.856ZM99.0777 21.5C100.136 27.848 105.702 32.034 112.096 32.034C114.166 32.034 116.236 31.574 118.076 30.608C124.93 26.974 126.862 17.82 124.01 10.966C122.354 7.01 118.582 2.686 114.166 1.904C109.612 1.122 104.828 3.836 102.252 7.562C100.964 9.448 100.504 11.15 99.7677 14.554C99.0777 17.544 98.6637 19.246 99.0777 21.5ZM102.758 12.024C103.31 6.642 108.094 3.1 113.016 3.1C114.994 3.1 116.972 3.652 118.72 4.894C128.518 11.794 125.436 31.114 111.728 29.918C109.75 29.734 107.864 28.676 107.588 26.56C107.45 25.41 107.864 24.398 107.588 23.294C107.312 22.144 106.576 21.316 105.886 20.396C104.92 19.154 104 17.82 103.402 16.348C102.85 15.014 102.62 13.588 102.758 12.024ZM111.774 18.004C113.062 19.2 112.51 19.982 113.062 20.58C113.384 20.948 113.844 21.086 114.258 21.086C114.718 21.086 115.132 20.902 115.362 20.58C117.248 17.82 114.718 15.52 114.718 15.52C114.304 15.014 113.66 14.784 113.062 14.784C112.372 14.784 111.728 15.106 111.452 15.704C110.808 17.084 111.774 18.004 111.774 18.004ZM128.37 14.646C128.6 15.198 129.382 15.382 130.164 15.382C130.808 15.382 131.498 15.29 131.912 15.106C133.108 14.646 134.442 14.232 135.776 14.232C136.42 14.232 137.018 14.324 137.616 14.554C139.088 15.152 139.778 16.578 141.434 16.854C142.262 17.038 143.09 16.992 143.32 16.44C144.148 15.014 142.584 13.772 141.388 13.266C140.56 12.898 139.594 12.714 138.628 12.714C137.754 12.714 136.834 12.852 136.052 13.036C135.408 13.174 134.212 13.588 133.568 13.726C132.234 13.956 130.302 13.634 129.52 12.438C128.508 11.012 129.566 8.988 130.44 7.792C131.544 5.308 135.224 3.56 137.892 3.56C139.732 3.56 141.618 4.066 143.136 4.986C145.068 6.136 145.85 8.436 147.874 9.31C148.932 9.816 149.668 9.954 150.358 9.77C150.542 9.724 151.232 9.448 151.508 8.85C152.474 6.78 149.576 4.158 148.012 3.33C146.448 2.456 144.7 2.134 142.906 1.95C137.8 1.444 132.28 3.56 129.566 8.068C128.462 9.862 127.588 12.576 128.37 14.646ZM129.29 26.56C131.452 30.516 135.822 32.126 140.146 32.126C144.24 32.126 148.38 30.976 150.818 27.434C151.784 26.008 152.658 22.006 149.99 22.006C149.254 22.052 148.61 22.512 148.15 23.018C147.644 23.57 147.322 24.214 146.908 24.858C144.884 28.216 141.618 30.838 137.57 30.838C133.338 30.838 129.382 27.756 128.968 23.432C128.784 21.868 129.244 20.258 129.888 18.786C130.026 18.464 130.164 18.188 130.164 17.866C130.21 17.636 130.072 17.314 129.888 17.176C129.842 17.13 129.796 17.084 129.704 17.084C129.152 16.946 128.738 17.636 128.6 18.188C127.91 20.994 127.956 24.076 129.29 26.56ZM165.179 31.758C166.513 32.172 167.893 32.402 169.273 32.402C173.873 32.402 178.289 29.964 179.255 24.49C179.715 21.914 179.117 19.338 178.795 16.808C178.427 14.094 179.623 11.564 179.853 8.942C180.037 6.32 178.887 4.112 177.093 2.41C176.725 2.088 176.219 1.72 175.759 1.628C173.781 1.352 174.195 4.02 174.701 5.124C175.253 6.366 176.357 7.608 176.587 9.08C176.909 11.196 176.403 13.358 177.001 15.428C177.829 18.234 178.933 20.764 178.703 23.892C178.335 28.262 174.931 29.642 171.297 29.642C164.995 29.642 158.969 25.778 156.301 20.028C154.645 16.486 154.737 12.07 156.117 8.436C156.761 6.872 157.589 5.86 158.555 4.618C159.107 3.928 160.671 2.548 159.797 1.674C159.475 1.352 158.693 1.72 158.463 1.812C155.749 3.1 154.921 8.068 154.691 10.736C153.725 19.338 156.715 29.182 165.179 31.758ZM184.284 8.896C184.79 12.116 185.342 15.796 184.468 18.97C183.87 21.086 182.858 23.018 182.674 25.226C182.49 27.434 182.996 29.642 184.514 31.436C185.02 32.08 185.664 32.586 186.492 32.862C188.746 33.552 188.608 31.482 188.056 30.194C187.504 28.998 186.63 27.986 186.124 26.744C184.652 23.064 186.584 19.246 186.308 15.52C186.078 12.208 185.112 9.034 184.192 5.86C184.146 5.584 184.054 5.308 183.962 5.032C183.732 4.158 183.64 3.238 184.33 2.548C184.79 2.042 185.48 1.858 186.216 1.858C187.412 1.858 188.792 2.318 189.666 2.64C192.794 3.79 196.244 5.4 198.222 8.252C199.234 9.724 199.74 11.61 199.602 13.404C199.51 14.738 198.682 18.05 196.796 17.728C194.542 17.314 193.852 13.91 191.368 13.634C189.206 13.404 187.32 14.738 187.228 16.992C187.182 19.2 190.264 20.166 191.552 21.408C192.794 22.558 193.76 23.892 194.726 25.226C196.52 27.802 198.36 30.654 201.488 32.034C202.822 32.632 204.294 33.046 205.766 33C207.238 32.954 208.71 32.494 209.722 31.528C210.734 30.608 211.24 28.86 209.86 28.032C209.446 27.802 208.986 27.71 208.526 27.71C207.1 27.71 205.49 28.492 204.202 28.538C201.12 28.676 198.452 27.25 196.474 25.18C195.416 24.076 194.588 22.834 193.622 21.73C192.564 20.58 191.46 19.706 190.218 18.832C189.758 18.51 188.332 17.452 189.436 16.946C190.08 16.67 190.678 17.59 191.092 17.958C192.748 19.338 195.14 20.028 197.256 20.028C199.464 20.12 201.534 19.292 202.73 17.498C204.754 14.462 203.144 9.724 200.89 7.148C198.59 4.48 195.002 2.502 191.414 1.582C190.172 1.26 188.608 0.799998 187.136 0.799998C186.262 0.799998 185.388 0.983998 184.698 1.444C182.122 3.1 183.916 6.688 184.284 8.896ZM199.372 25.594C199.786 26.1 200.384 26.56 200.936 26.79C201.948 27.296 203.006 27.526 203.972 27.342C204.708 27.204 205.674 26.422 205.076 25.318C204.846 24.812 204.34 24.628 203.926 24.674C203.19 24.812 202.5 24.95 201.718 24.858C201.028 24.766 200.338 24.352 199.694 24.398C199.648 24.398 199.648 24.444 199.648 24.444C199.142 24.49 198.912 25.042 199.372 25.594Z" fill="white"/>
</svg>
